<svg width="57" height="24" viewBox="0 0 57 24" fill="none" xmlns="http://www.w3.org/2000/svg">
<path d="M5.48077 18.606C5.90705 18.606 6.26736 18.4596 6.5617 18.1667C6.85603 17.8738 7.0032 17.5151 7.0032 17.0909C7.0032 16.6667 6.85603 16.3081 6.5617 16.0151C6.26736 15.7223 5.90705 15.5758 5.48077 15.5758C5.05449 15.5758 4.69418 15.7223 4.39984 16.0151C4.10551 16.3081 3.95834 16.6667 3.95834 17.0909C3.95834 17.5151 4.10551 17.8738 4.39984 18.1667C4.69418 18.4596 5.05449 18.606 5.48077 18.606ZM5.48077 7.69695C5.90705 7.69695 6.26736 7.55048 6.5617 7.25759C6.85603 6.96465 7.0032 6.60607 7.0032 6.18183C7.0032 5.75759 6.85603 5.399 6.5617 5.10607C6.26736 4.81314 5.90705 4.66668 5.48077 4.66668C5.05449 4.66668 4.69418 4.81314 4.39984 5.10607C4.10551 5.399 3.95834 5.75759 3.95834 6.18183C3.95834 6.60607 4.10551 6.96465 4.39984 7.25759C4.69418 7.55048 5.05449 7.69695 5.48077 7.69695ZM10.9615 13.1515C11.3878 13.1515 11.7481 13.005 12.0425 12.7122C12.3368 12.4192 12.4839 12.0606 12.4839 11.6364C12.4839 11.2122 12.3368 10.8535 12.0425 10.5606C11.7481 10.2677 11.3878 10.1212 10.9615 10.1212C10.5353 10.1212 10.1749 10.2677 9.88058 10.5606C9.5863 10.8535 9.43913 11.2122 9.43913 11.6364C9.43913 12.0606 9.5863 12.4192 9.88058 12.7122C10.1749 13.005 10.5353 13.1515 10.9615 13.1515ZM16.4423 18.606C16.8686 18.606 17.2289 18.4596 17.5233 18.1667C17.8175 17.8738 17.9647 17.5151 17.9647 17.0909C17.9647 16.6667 17.8175 16.3081 17.5233 16.0151C17.2289 15.7223 16.8686 15.5758 16.4423 15.5758C16.0161 15.5758 15.6557 15.7223 15.3614 16.0151C15.0671 16.3081 14.9199 16.6667 14.9199 17.0909C14.9199 17.5151 15.0671 17.8738 15.3614 18.1667C15.6557 18.4596 16.0161 18.606 16.4423 18.606ZM16.4423 7.69695C16.8686 7.69695 17.2289 7.55048 17.5233 7.25759C17.8175 6.96465 17.9647 6.60607 17.9647 6.18183C17.9647 5.75759 17.8175 5.399 17.5233 5.10607C17.2289 4.81314 16.8686 4.66668 16.4423 4.66668C16.0161 4.66668 15.6557 4.81314 15.3614 5.10607C15.0671 5.399 14.9199 5.75759 14.9199 6.18183C14.9199 6.60607 15.0671 6.96465 15.3614 7.25759C15.6557 7.55048 16.0161 7.69695 16.4423 7.69695ZM1.82692 22.5455C1.33974 22.5455 0.913462 22.3636 0.548077 22C0.182692 21.6364 0 21.2122 0 20.7273V2.54546C0 2.06061 0.182692 1.63637 0.548077 1.27273C0.913462 0.909098 1.33974 0.72728 1.82692 0.72728H20.0962C20.5834 0.72728 21.0096 0.909098 21.375 1.27273C21.7404 1.63637 21.9231 2.06061 21.9231 2.54546V20.7273C21.9231 21.2122 21.7404 21.6364 21.375 22C21.0096 22.3636 20.5834 22.5455 20.0962 22.5455H1.82692ZM1.82692 20.7273H20.0962V2.54546H1.82692V20.7273ZM1.82692 2.54546V20.7273V2.54546Z" fill="black"/>
<path d="M36.8527 14.2764C36.8527 16.88 35.4496 18.1818 32.6435 18.1818H27.2723V4.63273H32.5339C33.9223 4.63273 34.9527 4.91637 35.625 5.48364C36.2973 6.03637 36.6335 6.92364 36.6335 8.14546C36.6335 9.36728 36.1293 10.2982 35.1208 10.9382V11.0691C36.2754 11.52 36.8527 12.5891 36.8527 14.2764ZM31.7666 15.76C32.205 15.76 32.4973 15.6655 32.6435 15.4764C32.8043 15.2727 32.8846 14.8655 32.8846 14.2546C32.8846 13.6291 32.8043 13.1927 32.6435 12.9455C32.4827 12.6836 32.1904 12.5527 31.7666 12.5527H31.065V15.76H31.7666ZM31.7885 10.4364C32.1246 10.4364 32.3585 10.3346 32.49 10.1309C32.6216 9.92728 32.6873 9.57091 32.6873 9.06182C32.6873 8.53819 32.6143 8.17455 32.4681 7.97091C32.3366 7.75273 32.1027 7.64364 31.7666 7.64364H31.065V10.4364H31.7885ZM46.3261 8.6691C44.923 8.24728 43.8926 8.03637 43.2349 8.03637C42.5918 8.03637 42.1461 8.32001 41.8976 8.88728C41.6637 9.45455 41.5468 10.3564 41.5468 11.5927C41.5468 12.8145 41.6564 13.7091 41.8757 14.2764C42.1095 14.8291 42.5772 15.1055 43.2787 15.1055C43.4834 15.1055 43.878 15.0473 44.4626 14.9309V13.2727H43.476V10.6982H47.6634V18.1818H45.0764L44.7257 17.4836H44.638C44.3895 17.6873 44.1922 17.84 44.046 17.9418C43.6368 18.2473 43.0595 18.4 42.3141 18.4C39.2595 18.4 37.7322 16.1018 37.7322 11.5055C37.7322 9.20728 38.1341 7.45455 38.938 6.24728C39.7418 5.02546 41.0937 4.41455 42.9937 4.41455C44.5137 4.41455 45.8218 4.64728 46.918 5.11273L46.3261 8.6691ZM56.4229 18.1818H49.4952V4.63273H53.244V15.1491H56.6421L56.4229 18.1818Z" fill="black"/>
</svg>
