<svg width="26" height="26" viewBox="0 0 26 26" fill="none" xmlns="http://www.w3.org/2000/svg">
<path fill-rule="evenodd" clip-rule="evenodd" d="M16.2246 15.501H17.024L21.3144 19.8117C21.7293 20.2266 21.7293 20.9046 21.3144 21.3194C20.8996 21.7343 20.2216 21.7343 19.8067 21.3194L15.5061 17.0188V16.2194L15.2329 15.9361C13.8162 17.1504 11.8835 17.7778 9.82931 17.4337C7.01622 16.9581 4.76979 14.6105 4.42574 11.7772C3.89955 7.49682 7.50193 3.89444 11.7823 4.42063C14.6156 4.76468 16.9632 7.0111 17.4388 9.8242C17.7829 11.8784 17.1555 13.8111 15.9412 15.2278L16.2246 15.501ZM6.39895 10.9474C6.39895 13.4671 8.43288 15.501 10.9525 15.501C13.4722 15.501 15.5061 13.4671 15.5061 10.9474C15.5061 8.42777 13.4722 6.39384 10.9525 6.39384C8.43288 6.39384 6.39895 8.42777 6.39895 10.9474Z" fill="#6D7D8B"/>
</svg>
